<?xml version="1.0" standalone="no"?>
<!DOCTYPE svg PUBLIC "-//W3C//DTD SVG 20010904//EN"
 "http://www.w3.org/TR/2001/REC-SVG-20010904/DTD/svg10.dtd">
<svg version="1.0" xmlns="http://www.w3.org/2000/svg"
 width="500.000000pt" height="500.000000pt" viewBox="0 0 500.000000 500.000000"
 preserveAspectRatio="xMidYMid meet">
<metadata>
Created by potrace 1.16, written by Peter Selinger 2001-2019
</metadata>
<g transform="translate(0.000000,500.000000) scale(0.100000,-0.100000)"
fill="#000000" stroke="none">
<path d="M0 2500 l0 -2500 2500 0 2500 0 0 2500 0 2500 -2500 0 -2500 0 0
-2500z m2726 415 c17 -4 20 -10 16 -30 -4 -24 -7 -25 -81 -25 -69 0 -80 -3
-100 -24 -27 -29 -40 -81 -41 -156 0 -67 10 -83 47 -83 39 0 81 29 87 61 2 15
7 44 11 65 6 35 8 37 41 37 29 0 34 -3 30 -17 -2 -10 -10 -60 -17 -110 -12
-93 -12 -93 -40 -93 -22 0 -29 5 -29 20 0 21 0 21 -28 0 -16 -12 -47 -24 -70
-27 -36 -5 -45 -2 -71 24 -20 21 -31 44 -36 76 -8 51 9 166 30 206 39 76 122
101 251 76z m827 -10 c47 -20 62 -137 31 -247 -19 -67 -51 -103 -103 -118
-105 -29 -184 9 -197 96 -13 91 28 232 79 264 42 27 132 29 190 5z m-1985 -2
c5 -10 15 -69 22 -131 8 -62 17 -115 21 -117 3 -3 26 46 49 108 59 156 60 157
120 157 27 0 52 -5 55 -10 4 -6 -1 -92 -11 -190 l-17 -180 -34 0 c-39 0 -38
-10 -18 175 9 76 14 139 12 141 -2 2 -25 -51 -52 -119 -26 -67 -53 -128 -58
-135 -6 -8 -27 -12 -56 -10 l-46 3 -7 45 c-3 25 -12 86 -19 135 -14 106 -16
102 -50 -101 l-22 -134 -34 0 c-20 0 -33 5 -33 12 0 41 64 354 73 360 7 4 31
8 54 8 30 0 45 -5 51 -17z m427 -78 l28 -94 56 94 c54 94 55 95 94 95 28 0 36
-3 31 -12 -4 -7 -40 -65 -81 -129 -64 -102 -74 -123 -79 -177 l-7 -62 -39 0
c-33 0 -39 3 -34 18 21 75 17 117 -23 227 -23 61 -41 116 -41 123 0 7 13 12
34 12 l33 0 28 -95z m905 81 c0 -8 -11 -91 -25 -186 -14 -95 -25 -174 -25
-176 0 -2 -16 -4 -35 -4 -19 0 -35 4 -35 8 0 5 11 89 25 188 14 98 25 180 25
182 0 1 16 2 35 2 23 0 35 -5 35 -14z m300 -1 c34 -17 45 -50 37 -102 -7 -39
-41 -83 -65 -83 -13 0 -13 -3 1 -18 9 -9 21 -40 27 -67 5 -28 12 -60 15 -72 5
-21 2 -23 -34 -23 l-39 0 -7 58 c-10 82 -18 92 -69 92 l-44 0 -6 -47 c-14
-103 -14 -103 -53 -103 -34 0 -35 1 -29 33 3 17 15 103 27 190 l22 157 94 0
c65 0 103 -5 123 -15z"/>
<path d="M3408 2849 c-24 -13 -48 -100 -48 -171 0 -51 3 -60 25 -74 33 -21 80
-9 107 27 27 36 46 168 30 203 -10 22 -18 26 -54 26 -24 0 -51 -5 -60 -11z"/>
</g>
</svg>
